<svg width="402" height="498" viewBox="0 0 402 498" fill="none" xmlns="http://www.w3.org/2000/svg">
<path d="M305.305 496.279C304.408 495.179 301.107 489.475 297.908 483.382C289.615 467.59 246.116 386.584 210.911 321.387C165.905 238.079 160.912 228.888 151.417 211.387C146.61 202.586 128.415 168.887 110.914 136.39C66.6197 54.1819 66.8058 54.385 56.3119 41.4876C46.0042 28.5903 29.4171 15.9807 13.507 8.68581C1.30367 3.18498 0.000409173 2.49104 0.000409173 1.39087C-0.101145 0.696921 18.7032 0.290699 53.9085 0.0875913C114.908 -0.21707 116.415 -0.115518 131.309 7.0948C137.91 10.2937 141.414 12.7987 147.913 19.1966C157.815 29.0981 159.321 31.7046 199.909 109.393C209.404 127.487 227.413 161.998 239.904 185.897C252.412 209.796 274.111 251.501 288.21 278.396C302.207 305.392 315.917 330.797 318.608 335.096C326.411 347.3 334.4 351.903 347.703 351.903C361.007 351.903 371.01 345.099 388.003 324.704C397.803 312.907 402.509 308.912 400.901 313.804C399.8 317.308 310.907 492.708 308.893 495.5C306.997 498.005 306.794 498.005 305.288 496.296L305.305 496.279Z" fill="#985DD7" style="fill:#985DD7;fill:color(display-p3 0.5961 0.3647 0.8431);fill-opacity:1;"/>
</svg>
