<svg width="90" height="299" viewBox="0 0 90 299" fill="none" xmlns="http://www.w3.org/2000/svg">
<path d="M19.3121 294.116C11.9156 287.922 9.41066 285.112 8.10739 281.812C6.70256 278.003 7.31187 276.717 15.5039 267.408C34.5113 245.608 46.5116 221.015 53.1973 190.007C55.1945 180.715 55.3976 176.602 55.4991 155.005C55.4991 127.01 54.1959 117.701 47.0025 95.799C38.3027 69.4966 26.8102 49.7952 8.00584 29.6029C3.60518 24.8976 0 20.4969 0 20.0061C0 17.5011 3.30051 13.1004 9.79995 6.70253C15.7916 0.897043 17.298 0 20.497 0C23.4928 0 25.1007 0.897044 29.7045 5.19615C41.9079 16.7902 56.8024 37.4902 65.9084 55.8038C82.0046 87.8101 89.0119 117.701 89.0119 154.497C89.0119 207.305 70.4106 256.203 36.407 292.999C29.2136 300.701 27.301 300.802 19.3121 294.1V294.116Z" fill="#985DD7" style="fill:#985DD7;fill:color(display-p3 0.5961 0.3647 0.8431);fill-opacity:1;"/>
</svg>
