<svg width="107" height="416" viewBox="0 0 107 416" fill="none" xmlns="http://www.w3.org/2000/svg">
<path d="M17.8142 411.089C11.0101 405.589 6.71099 400.883 6.01704 397.989C5.32309 394.993 6.42326 393.284 16.9171 380.894C27.8172 367.997 37.211 353.288 46.0123 335.5C60.6191 305.592 69.2173 274.804 72.6194 239.498C74.0242 224.705 73.2117 188.399 71.113 174.503C63.0056 120.206 43.3211 74.8959 10.4177 34.9006C5.71239 29.0951 1.21016 23.4081 0.617765 22.2064C-1.0748 19.109 0.414652 16.4009 8.80976 7.80271C15.2076 1.10017 16.714 0 19.7099 0C22.5026 0 24.009 0.998603 28.6128 5.70393C40.613 18.212 59.8067 45.9023 70.5206 66.2977C93.3194 109.797 105.015 155.089 106.217 205.189C106.809 230.188 105.81 244.897 101.918 267.983C94.0133 314.681 74.6166 358.891 45.3183 396.787C29.6114 416.98 26.9202 418.384 17.8142 411.089Z" fill="#985DD7" style="fill:#985DD7;fill:color(display-p3 0.5961 0.3647 0.8431);fill-opacity:1;"/>
</svg>
